<svg data-v-fde0c5aa="" xmlns="http://www.w3.org/2000/svg" viewBox="0 0 300 300" class="iconLeft"><!----><defs data-v-fde0c5aa=""><linearGradient data-v-fde0c5aa="" gradientTransform="rotate(25)" id="eddc9460-c68f-46f5-af14-ed12e0b5336d" x1="0%" y1="0%" x2="100%" y2="0%"><stop data-v-fde0c5aa="" offset="0%" stop-color="#6A4F4C" stop-opacity="1"></stop><stop data-v-fde0c5aa="" offset="100%" stop-color="#A0A29B" stop-opacity="1"></stop></linearGradient></defs><rect data-v-fde0c5aa="" fill="url(#eddc9460-c68f-46f5-af14-ed12e0b5336d)" x="0" y="0" width="300px" height="300px" class="logo-background-square"></rect><defs data-v-fde0c5aa=""><!----></defs><g data-v-fde0c5aa="" id="7097ab34-57a9-4150-bd3f-f8c57e230580" fill="#ffffff" transform="matrix(2.1541158169961396,0,0,2.1541158169961396,98.44131240923763,130.67758054633364)"><path d="M9.16 11.14L9.16 11.14Q9.37 11.14 9.37 11.62L9.37 11.62Q9.37 12.61 8.44 13.54Q7.52 14.48 6.19 14.49L6.19 14.49Q5.25 14.49 4.02 13.75L4.02 13.75Q3.14 14.69 1.82 14.69L1.82 14.69Q0.95 14.69 0.55 14.25Q0.14 13.82 0.14 13.10Q0.14 12.39 0.67 12.03Q1.19 11.68 2.00 11.68L2.00 11.68Q2.44 11.68 2.81 11.72L2.81 11.72Q2.81 10.01 3.19 8.39L3.19 8.39Q2.73 8.15 2.40 7.85Q2.07 7.56 2.07 7.39L2.07 7.39Q2.07 6.94 2.27 6.94L2.27 6.94Q2.55 6.94 2.85 7.11Q3.15 7.27 3.50 7.35L3.50 7.35Q4.37 4.84 5.88 4.12L5.88 4.12Q6.41 3.86 7 3.86L7 3.86Q9.21 3.86 9.21 5.73L9.21 5.73Q9.21 6.79 8.41 7.56L8.41 7.56Q7.31 8.62 5.05 8.68L5.05 8.68Q4.90 9.86 4.90 11.47L4.90 11.47Q4.90 11.86 4.80 12.35L4.80 12.35Q5.29 12.60 5.75 12.81Q6.22 13.02 6.89 13.02L6.89 13.02Q7.24 13.02 7.58 12.73Q7.92 12.43 8.22 12.08Q8.53 11.73 8.76 11.44Q9.00 11.14 9.16 11.14ZM6.97 5.24L6.97 5.24Q5.80 5.24 5.26 7.48L5.26 7.48Q6.27 7.39 6.96 6.91Q7.66 6.43 7.66 5.94L7.66 5.94Q7.66 5.24 6.97 5.24ZM1.50 13.20L1.50 13.20Q1.51 13.59 2.04 13.59Q2.58 13.59 2.72 12.98L2.72 12.98Q2.32 12.78 2.07 12.78L2.07 12.78Q1.51 12.78 1.50 13.20ZM11.97 12.92L11.97 12.92Q13.06 12.92 14.08 12.05L14.08 12.05Q14.46 11.73 14.70 11.46Q14.94 11.19 15.06 11.19L15.06 11.19Q15.26 11.19 15.26 11.58Q15.26 11.97 15.05 12.45Q14.84 12.94 14.35 13.40L14.35 13.40Q13.15 14.53 11.05 14.53L11.05 14.53Q9.38 14.53 8.78 13.33L8.78 13.33Q8.57 12.91 8.57 12.12Q8.57 11.34 8.88 10.49Q9.18 9.65 9.70 9.03Q10.21 8.41 10.88 8.07Q11.55 7.73 12.31 7.73Q13.08 7.73 13.49 8.11Q13.90 8.48 13.90 9.09Q13.90 9.69 13.60 10.07Q13.30 10.46 12.82 10.72Q12.35 10.98 11.77 11.18Q11.19 11.38 10.63 11.63L10.63 11.63L10.63 11.98Q10.64 12.49 11.05 12.70Q11.45 12.91 11.97 12.92ZM11.73 8.97L11.73 8.97Q11.00 8.97 10.72 10.67L10.72 10.67Q11.02 10.47 11.28 10.32Q11.54 10.16 11.73 10.02L11.73 10.02Q12.15 9.72 12.17 9.32L12.17 9.32Q12.17 8.97 11.73 8.97ZM17.68 14.49L17.68 14.49Q15.68 14.50 14.95 12.99L14.95 12.99Q14.70 12.46 14.70 11.66Q14.70 10.85 14.84 9.94L14.84 9.94Q15.12 8.12 15.92 6.58L15.92 6.58Q16.32 5.80 16.83 5.24L16.83 5.24Q17.93 4.00 19.29 4.02L19.29 4.02Q19.89 4.02 20.24 4.35Q20.58 4.68 20.58 5.29Q20.58 5.91 20.22 6.53Q19.85 7.15 19.29 7.82Q18.72 8.48 18.03 9.21Q17.35 9.94 16.69 10.79L16.69 10.79L16.69 11.35Q16.69 12.14 17.02 12.50Q17.36 12.87 17.81 12.87L17.81 12.87Q19.01 12.87 19.94 11.68L19.94 11.68Q20.31 11.19 20.51 11.19L20.51 11.19Q20.71 11.19 20.71 11.66Q20.71 12.14 20.45 12.63Q20.19 13.13 19.77 13.54Q19.35 13.96 18.80 14.22Q18.26 14.49 17.68 14.49ZM18.44 6.97Q18.73 6.61 18.90 6.31Q19.07 6.02 19.07 5.71Q19.07 5.39 18.84 5.39L18.84 5.39Q18.35 5.39 17.76 6.40Q17.16 7.41 16.87 9.04L16.87 9.04Q17.35 8.32 17.75 7.83Q18.14 7.34 18.44 6.97ZM21.56 14.49L21.56 14.49Q20.16 14.49 20.16 11.87L20.16 11.87Q20.16 10.44 20.51 9.28L20.51 9.28Q21.06 7.49 21.74 7.49L21.74 7.49Q22.15 7.49 22.39 8.04L22.39 8.04Q22.58 8.46 22.57 8.86L22.57 8.86Q22.57 9.42 22.23 10.84L22.23 10.84Q21.91 12.07 21.91 12.36Q21.91 12.66 22.06 12.77Q22.20 12.88 22.41 12.88Q22.61 12.88 22.92 12.61Q23.23 12.35 23.53 12.03Q23.84 11.72 24.10 11.45Q24.36 11.19 24.46 11.19L24.46 11.19Q24.65 11.19 24.65 11.66L24.65 11.66Q24.65 12.64 23.67 13.57Q22.68 14.50 21.56 14.49ZM22.13 6.36L22.13 6.36Q21.76 5.80 21.76 5.15Q21.76 4.51 21.96 4.08Q22.16 3.65 22.34 3.45Q22.53 3.25 22.76 3.25L22.76 3.25Q23.16 3.25 23.48 3.83Q23.80 4.41 23.80 4.80L23.80 4.80Q23.80 5.53 23.29 5.94Q22.78 6.36 22.13 6.36ZM39.13 11.14L39.13 11.14Q39.37 11.14 39.37 11.79L39.37 11.79Q39.37 12.14 39.07 12.63Q38.78 13.13 38.31 13.54Q37.84 13.96 37.27 14.22Q36.69 14.49 36.18 14.49Q35.66 14.49 35.36 14.29Q35.07 14.10 34.90 13.76L34.90 13.76Q34.66 13.29 34.51 11.95Q34.36 10.61 34.20 10.08L34.20 10.08Q33.84 10.01 33.56 9.79Q33.29 9.58 33.29 9.26Q33.29 8.95 33.58 8.81Q33.87 8.67 34.24 8.67Q34.61 8.67 34.90 8.85L34.90 8.85Q35.29 8.53 35.54 8.09Q35.78 7.64 35.78 6.90Q35.78 6.15 35.28 5.70Q34.78 5.25 33.80 5.25Q32.83 5.25 32.31 5.40Q31.79 5.56 31.42 5.74Q31.05 5.92 30.77 6.08Q30.48 6.23 30.23 6.23Q29.97 6.23 29.97 6.07Q29.97 5.91 30.24 5.54Q30.51 5.18 31.02 4.82L31.02 4.82Q32.33 3.91 33.96 3.91Q35.60 3.92 36.67 4.54L36.67 4.54Q37.91 5.26 37.91 6.72L37.91 6.72Q37.93 7.92 37.28 8.72Q36.64 9.52 35.69 9.87L35.69 9.87Q35.90 10.33 36.03 10.86Q36.16 11.40 36.29 11.84Q36.41 12.29 36.58 12.59Q36.74 12.88 36.97 12.88Q37.20 12.88 37.53 12.61Q37.86 12.33 38.18 12.01Q38.50 11.69 38.76 11.42Q39.02 11.14 39.13 11.14ZM33.04 6.10L33.04 6.10Q33.22 6.10 33.22 6.58Q33.22 7.06 33.17 7.48L33.17 7.48Q33.04 8.29 32.84 8.99L32.84 8.99Q32.34 10.89 32.34 11.21L32.34 11.21L32.34 13.27Q32.34 14.03 31.77 14.31L31.77 14.31Q31.50 14.43 31.25 14.55Q31.01 14.66 30.70 14.66L30.70 14.66Q30.11 14.66 30.11 13.31Q30.11 11.96 30.74 9.90Q31.37 7.84 32.06 6.76L32.06 6.76Q32.20 6.55 32.47 6.33Q32.73 6.10 33.04 6.10ZM41.93 12.92L41.93 12.92Q43.02 12.92 44.04 12.05L44.04 12.05Q44.42 11.73 44.66 11.46Q44.90 11.19 45.02 11.19L45.02 11.19Q45.22 11.19 45.22 11.58Q45.22 11.97 45.01 12.45Q44.80 12.94 44.31 13.40L44.31 13.40Q43.11 14.53 41.01 14.53L41.01 14.53Q39.34 14.53 38.74 13.33L38.74 13.33Q38.53 12.91 38.53 12.12Q38.53 11.34 38.84 10.49Q39.14 9.65 39.66 9.03Q40.17 8.41 40.84 8.07Q41.51 7.73 42.27 7.73Q43.04 7.73 43.45 8.11Q43.86 8.48 43.86 9.09Q43.86 9.69 43.56 10.07Q43.26 10.46 42.78 10.72Q42.31 10.98 41.73 11.18Q41.15 11.38 40.59 11.63L40.59 11.63L40.59 11.98Q40.60 12.49 41.01 12.70Q41.41 12.91 41.93 12.92ZM41.69 8.97L41.69 8.97Q40.96 8.97 40.68 10.67L40.68 10.67Q40.98 10.47 41.24 10.32Q41.50 10.16 41.69 10.02L41.69 10.02Q42.11 9.72 42.13 9.32L42.13 9.32Q42.13 8.97 41.69 8.97ZM46.38 7.46L46.38 7.46Q46.89 7.46 47.33 8.43L47.33 8.43Q47.99 7.74 48.97 7.74Q49.94 7.74 50.43 8.17Q50.92 8.60 50.92 9.37Q50.92 10.15 50.72 10.95Q50.51 11.75 50.42 12.09Q50.33 12.43 50.33 12.66Q50.33 12.88 50.48 12.88L50.48 12.88Q50.69 12.88 51.00 12.61Q51.31 12.35 51.62 12.03Q51.93 11.72 52.19 11.45Q52.44 11.19 52.54 11.19L52.54 11.19Q52.74 11.19 52.74 11.66L52.74 11.66Q52.74 12.64 51.77 13.55L51.77 13.55Q50.15 14.50 49.70 14.50L49.70 14.50Q49.66 14.50 49.64 14.49L49.64 14.49Q48.52 14.49 48.52 12.70L48.52 12.70Q48.52 11.93 48.67 11.28Q48.82 10.64 48.89 10.35Q48.96 10.05 48.96 9.74L48.96 9.74Q48.96 9.24 48.38 9.24Q47.80 9.24 47.27 10.10Q46.75 10.96 46.56 11.89L46.56 11.89L46.56 11.98Q46.56 12.46 46.71 12.96Q46.86 13.47 46.86 13.66L46.86 13.66Q46.86 14.14 45.67 14.60L45.67 14.60Q45.49 14.67 45.35 14.67L45.35 14.67Q45.00 14.67 44.86 14.31Q44.73 13.94 44.73 13.17L44.73 13.17Q44.73 11.19 44.88 10.30L44.88 10.30Q45.09 8.99 45.84 7.85L45.84 7.85Q46.09 7.46 46.38 7.46ZM52.66 13.69Q52.50 13.31 52.43 12.82Q52.36 12.32 52.36 11.42Q52.36 10.53 52.70 9.00L52.70 9.00L52.07 9.00Q51.90 9.00 51.90 8.86L51.90 8.86Q51.90 8.53 51.96 8.31Q52.02 8.09 52.26 7.81L52.26 7.81L52.60 7.81Q52.79 7.81 53.02 7.80L53.02 7.80Q53.69 5.64 54.39 5.64L54.39 5.64Q54.95 5.66 55.17 6.36L55.17 6.36Q55.23 6.55 55.30 6.78L55.30 6.78L54.73 7.78Q55.71 7.81 55.97 7.81Q56.22 7.81 56.25 7.86Q56.27 7.91 56.27 8.01L56.27 8.01Q56.27 8.26 56.15 8.64Q56.03 9.02 55.87 9.00L55.87 9.00L54.47 8.93Q54.18 10.64 54.18 11.76Q54.18 12.88 54.50 12.88L54.50 12.88Q54.77 12.88 55.47 12.44Q56.17 12.00 56.48 11.59Q56.78 11.19 56.98 11.19L56.98 11.19Q57.18 11.19 57.18 11.66Q57.18 12.14 56.84 12.63Q56.50 13.13 55.99 13.54Q55.48 13.96 54.86 14.22Q54.24 14.49 53.77 14.49Q53.31 14.49 53.07 14.27Q52.82 14.06 52.66 13.69ZM65.07 11.14L65.07 11.14Q65.32 11.14 65.32 11.79L65.32 11.79Q65.32 12.14 65.03 12.63Q64.74 13.13 64.27 13.54Q63.80 13.96 63.22 14.22Q62.65 14.49 62.10 14.49L62.10 14.49Q61.36 14.49 61.11 13.19L61.11 13.19Q60.75 13.79 60.16 14.18Q59.57 14.56 58.58 14.56Q57.60 14.56 56.99 13.94Q56.39 13.33 56.41 12.45L56.41 12.45Q56.41 10.07 57.99 8.69L57.99 8.69Q58.66 8.12 59.24 7.94Q59.82 7.76 60.47 7.76Q61.11 7.76 61.52 7.98L61.52 7.98Q61.71 7.57 61.96 7.57L61.96 7.57Q62.45 7.57 62.90 8.00Q63.34 8.43 63.34 8.81L63.34 8.81Q63.14 9.27 62.76 9.91L62.76 9.91Q62.65 10.56 62.65 11.72Q62.65 12.88 62.94 12.88L62.94 12.88Q63.31 12.88 64.71 11.42L64.71 11.42Q64.96 11.14 65.07 11.14ZM58.46 11.98L58.46 11.98Q58.46 13.06 59.26 13.06L59.26 13.06Q60.12 13.05 60.68 12.15L60.68 12.15Q60.87 11.84 61.00 11.40L61.00 11.40Q61.00 9.83 61.28 8.71L61.28 8.71Q60.14 8.93 59.30 9.80Q58.46 10.67 58.46 11.98ZM67.75 14.49L67.75 14.49Q65.74 14.50 65.02 12.99L65.02 12.99Q64.76 12.46 64.76 11.66Q64.76 10.85 64.90 9.94L64.90 9.94Q65.18 8.12 65.98 6.58L65.98 6.58Q66.39 5.80 66.89 5.24L66.89 5.24Q68.00 4.00 69.36 4.02L69.36 4.02Q69.96 4.02 70.30 4.35Q70.64 4.68 70.64 5.29Q70.64 5.91 70.28 6.53Q69.92 7.15 69.35 7.82Q68.78 8.48 68.10 9.21Q67.41 9.94 66.75 10.79L66.75 10.79L66.75 11.35Q66.75 12.14 67.09 12.50Q67.42 12.87 67.87 12.87L67.87 12.87Q69.08 12.87 70.00 11.68L70.00 11.68Q70.38 11.19 70.57 11.19L70.57 11.19Q70.77 11.19 70.77 11.66Q70.77 12.14 70.51 12.63Q70.25 13.13 69.83 13.54Q69.41 13.96 68.87 14.22Q68.32 14.49 67.75 14.49ZM68.50 6.97Q68.80 6.61 68.96 6.31Q69.13 6.02 69.13 5.71Q69.13 5.39 68.91 5.39L68.91 5.39Q68.42 5.39 67.82 6.40Q67.23 7.41 66.93 9.04L66.93 9.04Q67.41 8.32 67.81 7.83Q68.21 7.34 68.50 6.97ZM73.14 7.67Q74.07 7.66 74.54 8.02Q75.00 8.37 75.00 9.04Q75.00 9.70 74.60 10.17Q74.20 10.64 73.63 10.84L73.63 10.84Q74.03 11.26 74.36 11.69Q74.69 12.12 74.69 12.60L74.69 12.60Q74.69 13.54 73.95 14.05Q73.21 14.56 71.88 14.56Q70.56 14.56 69.90 14.04Q69.24 13.51 69.24 12.85Q69.24 12.18 69.57 11.63Q69.90 11.09 70.28 11.09L70.28 11.09Q70.50 11.09 70.60 11.25Q70.70 11.41 70.97 12.18L70.97 12.18Q71.06 12.46 71.29 12.71L71.29 12.71Q71.81 13.29 72.93 13.29L72.93 13.29Q72.76 12.75 72.39 12.37Q72.02 11.98 71.65 11.62Q71.29 11.26 71.01 10.84Q70.73 10.43 70.73 9.87L70.73 9.87Q70.73 8.86 71.48 8.23L71.48 8.23Q72.20 7.67 73.14 7.67ZM73.08 10.26L73.08 10.26Q73.64 9.66 73.64 9.30L73.64 9.30Q73.64 9.13 73.52 9.00Q73.40 8.86 73.18 8.86Q72.95 8.86 72.75 8.92Q72.55 8.97 72.42 9.00L72.42 9.00Q72.42 9.53 73.08 10.26Z"></path></g><defs data-v-fde0c5aa=""><!----></defs><g data-v-fde0c5aa="" id="683a6870-e0ec-42c3-b0f9-2656ffa55a50" stroke="none" fill="#ffffff" transform="matrix(0.48178077393842705,0,0,0.48178077393842705,38.7799702374619,125.92902550911441)"><switch><g><path d="M88.5 57.7c-2.7 1-7 2.1-11.8 3.2-1.7 2.8-4.8 5.1-9.7 6-1.1.2-2.4.3-3.8.4-3.4.1-7.4-.3-11.8-.6-.3 0-.6 0-.9-.1-1.1-.1-2-.9-2.1-2-.1-1.4 1-2.5 2.3-2.4.3 0 .7.1 1 .1 5.7.5 11.1 1 14.5.3 6.3-1.2 8.1-5 7.7-8.2-.3-2.6-2.3-5.1-5.4-4.9-4.4.3-9.6 0-14.7-.4-5.8-.4-11.7-.6-15.9-.1-4.7.5-14.2 4-22.6 9.7-4.1 2.8-8.7 6.1-11.5 8.2-1.4 1-1.7 3-.6 4.4l12.2 15.8c1 1.4 3 1.6 4.4.6l4.5-3.5c1.1-.8 2.5-1.1 3.7-.7 8.2 2.6 17 4.3 22.7 4.6 12.5.6 36.6-14.2 43.5-19 6.9-4.6 1.9-14.2-5.7-11.4zM37.3 33.7c.5.5 1.3.5 1.8 0l4-4 3.9 3.9c.5.5 1.3.5 1.8 0l4-3.9 4.5 4.5c.2.2.6.4.9.4h6.9c2.7 4.7 7.7 8 13.5 8 8.6 0 15.5-6.9 15.5-15.5s-6.9-15.5-15.5-15.5c-5.8 0-10.8 3.2-13.5 8H38.7c-.3 0-.7.1-.9.4l-6.3 6.2c-.5.5-.5 1.3 0 1.8l5.8 5.7zm46.6-11c2.4 0 4.3 1.9 4.3 4.3s-1.9 4.3-4.3 4.3-4.3-1.9-4.3-4.3 1.9-4.3 4.3-4.3z"></path></g></switch></g><!----></svg>